# xmcd
#
# Track frame offsets:
# 150
# 11860
# 30120
# 44615
# 58227
# 69457
# 81050
# 91732
# 105590
# 118155
# 128995
# 136360
#
# Disc length: 1932 seconds
#
#
# Revision: 2
# Processed by: cddbd v1.4PL0 Copyright (c) Steve Scherf et al.
# Submitted via: FreeRIP 2.10 
#
DISCID=9f078a0c
DTITLE=Jonathan Richman - Jonathan Goes Country
DYEAR=1990
DGENRE=
TTITLE0=Since She Started to Ride
TTITLE1=Reno
TTITLE2=You're the One For Me
TTITLE3=Your Good Girl's Gonna Go Bad
TTITLE4=I Must Be King
TTITLE5=You're Crazy For Taking The Bus
TTITLE6=Rodeo Wind
TTITLE7=Corner Store
TTITLE8=The Neighbors
TTITLE9=Man Walks Among Us
TTITLE10=I Can't Stay Mad At You
TTITLE11=Satisfied Mind
EXTD=
EXTT0=
EXTT1=
EXTT2=
EXTT3=
EXTT4=
EXTT5=
EXTT6=
EXTT7=
EXTT8=
EXTT9=
EXTT10=
EXTT11=
PLAYORDER=
